<mxfile host="app.diagrams.net" agent="Mozilla/5.0 (Windows NT 10.0; Win64; x64) AppleWebKit/537.36 (KHTML, like Gecko) Chrome/127.0.0.0 Safari/537.36" version="24.7.7">
  <diagram id="C5RBs43oDa-KdzZeNtuy" name="Page-1">
    <mxGraphModel dx="954" dy="558" grid="1" gridSize="10" guides="1" tooltips="1" connect="1" arrows="1" fold="1" page="1" pageScale="1" pageWidth="827" pageHeight="1169" math="0" shadow="0">
      <root>
        <mxCell id="WIyWlLk6GJQsqaUBKTNV-0" />
        <mxCell id="WIyWlLk6GJQsqaUBKTNV-1" parent="WIyWlLk6GJQsqaUBKTNV-0" />
        <mxCell id="VIhZhI7kXE7_OLKavAFO-16" style="edgeStyle=orthogonalEdgeStyle;rounded=0;orthogonalLoop=1;jettySize=auto;html=1;exitX=1;exitY=0.5;exitDx=0;exitDy=0;entryX=0;entryY=0.5;entryDx=0;entryDy=0;" edge="1" parent="WIyWlLk6GJQsqaUBKTNV-1" source="VIhZhI7kXE7_OLKavAFO-0" target="VIhZhI7kXE7_OLKavAFO-2">
          <mxGeometry relative="1" as="geometry" />
        </mxCell>
        <mxCell id="VIhZhI7kXE7_OLKavAFO-17" style="edgeStyle=orthogonalEdgeStyle;rounded=0;orthogonalLoop=1;jettySize=auto;html=1;exitX=1;exitY=0.5;exitDx=0;exitDy=0;entryX=0;entryY=0.5;entryDx=0;entryDy=0;" edge="1" parent="WIyWlLk6GJQsqaUBKTNV-1" source="VIhZhI7kXE7_OLKavAFO-0" target="VIhZhI7kXE7_OLKavAFO-3">
          <mxGeometry relative="1" as="geometry" />
        </mxCell>
        <mxCell id="VIhZhI7kXE7_OLKavAFO-0" value="&lt;span style=&quot;font-family: 宋体;&quot;&gt;&lt;font style=&quot;font-size: 16px;&quot;&gt;智慧主题场景教学管理设施设备成果管理系统&lt;/font&gt;&lt;/span&gt;" style="rounded=0;whiteSpace=wrap;html=1;fontSize=10;" vertex="1" parent="WIyWlLk6GJQsqaUBKTNV-1">
          <mxGeometry x="70" y="293" width="170" height="60" as="geometry" />
        </mxCell>
        <mxCell id="VIhZhI7kXE7_OLKavAFO-2" value="&lt;span style=&quot;font-family: 宋体; font-size: 16px;&quot;&gt;&lt;font style=&quot;font-size: 16px;&quot;&gt;数据大屏模块&lt;/font&gt;&lt;/span&gt;" style="rounded=0;whiteSpace=wrap;html=1;fontSize=16;" vertex="1" parent="WIyWlLk6GJQsqaUBKTNV-1">
          <mxGeometry x="320" y="250" width="120" height="30" as="geometry" />
        </mxCell>
        <mxCell id="VIhZhI7kXE7_OLKavAFO-18" style="edgeStyle=orthogonalEdgeStyle;rounded=0;orthogonalLoop=1;jettySize=auto;html=1;exitX=1;exitY=0.5;exitDx=0;exitDy=0;entryX=0;entryY=0.5;entryDx=0;entryDy=0;" edge="1" parent="WIyWlLk6GJQsqaUBKTNV-1" source="VIhZhI7kXE7_OLKavAFO-3" target="VIhZhI7kXE7_OLKavAFO-15">
          <mxGeometry relative="1" as="geometry" />
        </mxCell>
        <mxCell id="VIhZhI7kXE7_OLKavAFO-19" style="edgeStyle=orthogonalEdgeStyle;rounded=0;orthogonalLoop=1;jettySize=auto;html=1;exitX=1;exitY=0.5;exitDx=0;exitDy=0;entryX=0;entryY=0.5;entryDx=0;entryDy=0;" edge="1" parent="WIyWlLk6GJQsqaUBKTNV-1" source="VIhZhI7kXE7_OLKavAFO-3" target="VIhZhI7kXE7_OLKavAFO-5">
          <mxGeometry relative="1" as="geometry" />
        </mxCell>
        <mxCell id="VIhZhI7kXE7_OLKavAFO-3" value="&lt;span style=&quot;font-family: 宋体; font-size: 16px;&quot;&gt;&lt;font style=&quot;font-size: 16px;&quot;&gt;基础服务模块&lt;/font&gt;&lt;/span&gt;" style="rounded=0;whiteSpace=wrap;html=1;fontSize=16;" vertex="1" parent="WIyWlLk6GJQsqaUBKTNV-1">
          <mxGeometry x="320" y="368" width="120" height="30" as="geometry" />
        </mxCell>
        <mxCell id="VIhZhI7kXE7_OLKavAFO-5" value="&lt;span style=&quot;font-family: 宋体; font-size: 16px;&quot;&gt;&lt;font style=&quot;font-size: 16px;&quot;&gt;成果内容模块&lt;/font&gt;&lt;/span&gt;" style="rounded=0;whiteSpace=wrap;html=1;fontSize=16;" vertex="1" parent="WIyWlLk6GJQsqaUBKTNV-1">
          <mxGeometry x="520" y="410" width="120" height="30" as="geometry" />
        </mxCell>
        <mxCell id="VIhZhI7kXE7_OLKavAFO-15" value="&lt;span style=&quot;font-family: 宋体; font-size: 16px;&quot;&gt;&lt;font style=&quot;font-size: 16px;&quot;&gt;成果领域模块&lt;/font&gt;&lt;/span&gt;" style="rounded=0;whiteSpace=wrap;html=1;fontSize=16;" vertex="1" parent="WIyWlLk6GJQsqaUBKTNV-1">
          <mxGeometry x="520" y="330" width="120" height="30" as="geometry" />
        </mxCell>
      </root>
    </mxGraphModel>
  </diagram>
</mxfile>
